PathFileType	4	(X/Y/Z)	Patient4_TMGait_0pt7_01_right_15.trc.trc
DataRate	CameraRate	NumFrames	NumMarkers	Units	OrigDataRate	OrigDataStartFrame	OrigNumFrames
89.171974522293	89.171974522293	6	33	mm	89.171974522293	106	       141
Frame#	Time	Sacral			L.Shoulder			Chest			R.Shoulder			Neck			R.ASIS			L.ASIS			R.Thigh.Superior			R.Thigh.Lateral			R.Thigh.Inferior			R.Patella			L.Thigh.Superior			L.Thigh.Lateral			L.Thigh.Inferior			L.Patella			L.Shank.Superior			L.Shank.Lateral			L.Shank.Inferior			R.Shank.Superior			R.Shank.Lateral			R.Shank.Inferior			R.Heel			R.Midfoot.Superior			R.Midfoot.Lateral			R.Toe			L.Heel			L.Midfoot.Lateral			L.Midfoot.Superior			L.Toe			L.Elbow			L.Wrist			R.Elbow			R.Wrist			
		X1	Y1	Z1	X2	Y2	Z2	X3	Y3	Z3	X4	Y4	Z4	X5	Y5	Z5	X6	Y6	Z6	X7	Y7	Z7	X8	Y8	Z8	X9	Y9	Z9	X10	Y10	Z10	X11	Y11	Z11	X12	Y12	Z12	X13	Y13	Z13	X14	Y14	Z14	X15	Y15	Z15	X16	Y16	Z16	X17	Y17	Z17	X18	Y18	Z18	X19	Y19	Z19	X20	Y20	Z20	X21	Y21	Z21	X22	Y22	Z22	X23	Y23	Z23	X24	Y24	Z24	X25	Y25	Z25	X26	Y26	Z26	X27	Y27	Z27	X28	Y28	Z28	X29	Y29	Z29	X30	Y30	Z30	X31	Y31	Z31	X32	Y32	Z32	X33	Y33	Z33	

106	17.817500000000	823.935699780362	1009.175134530495	441.552270070823	1028.771002181286	1432.364372896230	264.572208467651	1117.514710643730	1360.134240842769	433.987983903268	1025.631518892611	1442.107830923880	600.169283841379	1025.633782939782	1496.715122236313	418.740815184142	1046.433743595132	948.895266083092	567.056007536910	1043.083727176729	965.991501076108	292.888877736162	1145.800095145336	802.869919167085	539.625376582605	1125.641927651266	680.366029314351	621.037565083555	1222.519292401345	653.195884192236	545.980770818489	1258.590881631964	545.129087638778	571.611710243218	1074.222395183264	748.227121153749	320.998370099925	972.790507301131	640.916585366973	260.265602026569	1046.407434956403	555.568281437148	324.129751779173	1039.121668851975	488.787952802697	334.915500871437	1014.383234649813	419.480546974270	326.974814509502	923.910625057499	304.517993862020	280.126183944721	977.535125118448	194.911020744922	352.271183941683	1196.224096531589	458.312731245930	578.219334274684	1083.687226825811	397.843898544222	637.609684108577	1089.762357546892	287.594330946526	590.417110147918	903.581209969786	195.061696362105	559.651743394333	1078.096424180498	161.304544051248	606.875577719054	968.097988988856	147.109178574064	636.615289989386	1155.150980280245	58.375858324450	638.773739486256	850.662778065353	38.562287862849	400.987070805499	921.845854656533	35.390170316799	317.318816051236	1005.346862009015	96.392004538304	341.060104236100	1133.090446772335	45.767290310701	308.684087012169	1035.077438035108	1085.032937188315	136.715000881320	1202.164149651985	885.105457598757	149.534808533981	940.283637863536	1107.549727085077	718.031557446439	1117.871572087701	920.240287322534	692.843263746882	
107	17.828714285714	823.016973877483	1009.206815522674	440.830244992975	1029.984122668937	1432.059659589588	264.627782993683	1117.643722049214	1359.477981568062	434.456042353473	1025.126619391007	1441.690054570556	600.068291463725	1026.047007122895	1496.327173872763	418.677312702807	1045.252469671844	948.974148337260	567.521869786707	1042.822611361924	965.380633756967	293.154593946955	1144.973806766747	803.864984100557	539.889340358139	1125.295492311470	681.028791783776	621.265763422624	1222.094929245159	654.209824231389	546.294545508773	1259.469748851451	548.178840667253	571.859767627000	1071.734548297040	747.076157557711	322.044036224718	969.537131451331	640.683589735153	260.345998341224	1041.619626687560	554.637694271671	324.713531402585	1033.630136466330	488.087866637988	335.371295393178	1008.635510589573	418.963162299104	327.369073248667	917.788089781117	304.470834350905	280.164192015511	970.442900803339	194.585528812247	352.541077030285	1201.351194036565	459.608640644135	579.234734145000	1093.535338980056	392.975424275293	640.343181004586	1105.391078080957	283.146493128400	593.370640595597	924.837836595373	179.937046778333	565.028824026838	1101.362362569884	156.547479746739	610.825217556192	992.652731981396	136.302545751741	641.592051852977	1184.238712474580	58.319302964360	642.587003723636	842.782699503212	38.574100932791	400.968037605208	913.963574943557	35.398037899052	317.361380244550	997.540218819388	96.302021342802	341.219563641182	1125.259625869160	45.492285483952	308.739400633650	1041.084916516115	1086.149468061283	134.496687701451	1219.046923924717	896.077275433690	149.197257889569	935.248362951311	1107.483929765591	717.485622737226	1094.820645461277	903.706136761159	699.106162137589	
108	17.839928571429	822.206843703424	1009.215601595635	440.190848668133	1031.257290173543	1431.705547037245	264.829037445806	1117.871873849031	1358.728839170818	435.015395504369	1024.791053812308	1441.159466493866	600.132270163524	1026.548687784052	1495.865306570745	418.761520109181	1044.155194581952	948.888399889275	568.099032801784	1042.753622737949	964.746415210339	293.496038668508	1143.847289827715	804.142723361950	540.372222903406	1124.073038195769	680.978355085183	621.591133908182	1220.718779796628	654.207162926296	546.737317028344	1259.165024303950	550.441921688562	572.184712347159	1069.320307830223	745.878264985796	323.054977119490	966.306118802430	640.423160786933	260.483927029768	1036.891428700926	553.697932731141	325.286053614523	1028.225857350344	487.378617616217	335.804940962329	1002.925665081737	418.437018666601	327.757480629309	911.665906863720	304.433091737954	280.215585556550	963.349227184504	194.253252948567	352.798328343572	1205.560747216834	460.440595957181	580.331724790273	1103.121340797625	387.637687896503	643.150167335740	1121.131219820832	278.640307957178	596.333872096887	947.389092287752	164.466383393642	570.290538754915	1125.235048802396	152.149977208680	614.672643016081	1018.322977394727	125.608307869696	646.464444973053	1213.947100227027	59.382349189357	646.332236400600	834.907075445320	38.599325011291	400.940298528417	906.078404308289	35.406928991772	317.403401363096	989.736711410949	96.211232622755	341.375391746419	1117.426943130986	45.194012070597	308.799694654014	1046.653690313021	1087.281246135226	132.545455207973	1235.017440670635	907.846476877226	149.269138893074	930.866885076379	1107.170839309632	717.027838209421	1070.762433197867	888.746914872682	705.302233274351	
109	17.851142857143	821.559963551669	1009.175117885897	439.649971145531	1032.565765356510	1431.318800377661	265.190308281710	1118.195586267730	1357.903336245295	435.672956733741	1024.625270262290	1440.510732221624	600.378910190054	1027.130122471626	1495.334897723098	419.012123707340	1043.180134989304	948.637718864424	568.777632927760	1042.900039307535	964.113163704684	293.914051584899	1142.426095096755	803.648062623059	541.077131647206	1121.981248138725	680.206611899472	622.061310452841	1218.381179392947	653.162016201620	547.321219939743	1257.678129984500	551.891220914836	572.604470781634	1066.998856068500	744.637869665717	324.006110508622	963.090964932216	640.143550973519	260.675165148243	1032.222655212194	552.751067817657	325.831176708896	1022.898364933428	486.654117449463	336.213351215055	997.247357862907	417.905776434369	328.133415440759	905.534873596535	304.410878155195	280.283783257263	956.249141599732	193.920105172761	353.038649057018	1208.818010448975	460.830354650716	581.509751055156	1112.364643855478	381.962865729991	645.976468902040	1136.834056419787	274.259364394322	599.223041038569	971.101954896533	149.015265110882	575.271764673730	1149.484201937154	148.346630724851	618.291027562416	1044.903161248107	115.304670920253	651.057051582666	1243.940000681270	61.767920582828	649.822137838664	827.034284380071	38.641279313248	400.907220544983	898.190161955126	35.419611065571	317.444250604004	981.935406767012	96.120743296418	341.523171675901	1109.590085621212	44.876492898176	308.862585369825	1051.819250084254	1088.416522115572	130.887192013628	1249.981581846106	920.336719992864	149.742916165408	927.027925173959	1106.681689279144	716.644539099634	1046.068586135885	875.635185949551	711.281010164281	
110	17.862357142857	821.126255275085	1009.049802976755	439.227519616393	1033.881678784321	1430.912484404171	265.725450881697	1118.609894290316	1357.015017788859	436.434813856631	1024.628018128512	1439.738647308121	600.821129747675	1027.778932139754	1494.737684514339	419.447245604708	1042.369403612347	948.222773318049	569.550510413454	1043.264309832683	963.485630200381	294.413839212394	1140.727362236550	802.343809706686	542.006637694212	1119.061589970847	678.732696059293	622.728869670754	1215.106891880042	651.088519556544	548.054435599750	1255.044932001522	552.528207074998	573.129808041844	1064.786855311503	743.358718425283	324.888005429380	959.899170737968	639.850061860691	260.915101809045	1027.622192129151	551.797923440927	326.342135125950	1017.646987363522	485.907547367254	336.597815264342	991.604400561417	417.369031487105	328.495363441584	899.396431150443	304.408235365946	280.372022806999	949.142206498124	193.589542383984	353.261391296202	1211.110066007935	460.803751700409	582.761401328364	1121.157997739975	376.082372773272	648.751420224977	1152.303395059715	270.164957952665	601.949501364680	995.719795587797	133.950032963427	579.793683040726	1173.795872744152	145.324124660090	621.565993069100	1072.070275952794	105.641807114940	655.189515698930	1273.788003441866	65.577017760441	652.899283001670	819.163624125551	38.702267659199	400.873257929432	890.299585232209	35.438761297930	317.483882631915	974.135972877715	96.031675343354	341.659962983840	1101.747695664853	44.544581836607	308.925700958974	1056.615256296549	1089.545541250655	129.541539702314	1263.857552781301	933.455651670614	150.605885873674	923.604865651444	1106.100195139433	716.332272343168	1021.195418064755	864.598579667429	716.879359416818	
111	17.873571428571	820.946507847911	1008.799036353489	438.947262147805	1035.174535777333	1430.494182419144	266.446185219197	1119.107712993579	1356.074158069948	437.305599117989	1024.794877305062	1438.839943712704	601.465968507989	1028.478881443768	1494.072031486508	420.081905621330	1041.766372567350	947.645045753983	570.413933394419	1043.830985987285	962.850479639998	295.003101787438	1138.783063320225	800.221626756723	543.160996698346	1115.397664990160	676.604466412485	623.641484395049	1210.964960115076	648.048213993215	548.936037149559	1251.341776535264	552.384119567570	573.758976865995	1062.701028119206	742.042784329729	325.706908528055	956.753454971150	639.543952081922	261.201308216958	1023.109864821686	550.837274685073	326.823242948192	1012.483760914962	485.131687417927	336.965124830009	986.013031579576	416.821655428469	328.847763352119	893.263377259555	304.426602749733	280.484392571739	942.033184187439	193.261595932276	353.470096002429	1212.448563120741	460.386545932788	584.069061205399	1129.365829740804	370.118922421856	651.386560647506	1167.293419548877	266.479242900546	604.424238683692	1020.845786309449	119.616112360307	583.674280420821	1197.767301152261	143.192693148278	624.399156027785	1099.371690281596	96.820232290228	658.688227943166	1302.969995967153	70.775566887670	655.446490974617	811.295564327248	38.782950688013	400.842903482731	882.408418689260	35.466426570119	317.522941832647	966.338681275966	95.944895354695	341.784747922771	1093.899587542770	44.203349348973	308.986677083951	1061.069784293435	1090.658108891615	128.520166610317	1276.577862903961	947.095128194608	151.839362112061	920.461101694988	1105.515376481132	716.102284193944	996.651518519667	855.782329505451	721.939179766375	
